<svg width="0" height="0" style="position:absolute"><symbol id="facebook" viewBox="0 0 72 72" xmlns="http://www.w3.org/2000/svg"><defs><style>.acls-1{fill-rule:evenodd}</style></defs><path class="acls-1" d="M0 36C0 16.118 16.118 0 36 0s36 16.118 36 36-16.118 36-36 36S0 55.882 0 36zm39.752 21.167V37.581h5.407l.716-6.75h-6.123l.01-3.377c0-1.76.167-2.704 2.695-2.704h3.38V18H40.43c-6.495 0-8.781 3.274-8.781 8.78v4.053H27.6v6.75h4.049v19.584h8.103z"/></symbol><symbol id="in" viewBox="0 0 72 72" xmlns="http://www.w3.org/2000/svg"><defs><style>.bcls-1{fill-rule:evenodd}</style></defs><path class="bcls-1" d="M0 36C0 16.118 16.118 0 36 0s36 16.118 36 36-16.118 36-36 36S0 55.882 0 36zm25.44-6.183h-8.158v24.512h8.159V29.817zm.538-7.583C25.925 19.831 24.207 18 21.416 18S16.8 19.83 16.8 22.234c0 2.354 1.77 4.237 4.51 4.237h.052c2.845 0 4.616-1.883 4.616-4.237zm28.885 18.04c0-7.529-4.025-11.033-9.394-11.033-4.331 0-6.27 2.38-7.353 4.048v-3.472h-8.16c.108 2.3 0 24.513 0 24.513h8.16V40.64c0-.732.053-1.463.268-1.988.59-1.463 1.933-2.979 4.187-2.979 2.953 0 4.134 2.248 4.134 5.542V54.33h8.158V40.275z"/></symbol><symbol id="instagram" viewBox="0 0 72 72" xmlns="http://www.w3.org/2000/svg"><defs><style>.ccls-1{fill-rule:evenodd}</style></defs><path class="ccls-1" d="M36 0C16.118 0 0 16.118 0 36s16.118 36 36 36 36-16.118 36-36S55.882 0 36 0zm19.084 43.916c-.096 2.043-.42 3.438-.892 4.66a9.426 9.426 0 01-2.216 3.4 9.394 9.394 0 01-3.399 2.216c-1.221.475-2.618.799-4.662.892-2.048.094-2.7.116-7.916.116-5.214 0-5.868-.022-7.916-.116-2.043-.093-3.439-.417-4.66-.892a9.402 9.402 0 01-3.4-2.216 9.409 9.409 0 01-2.215-3.4c-.474-1.222-.798-2.617-.892-4.66-.093-2.049-.116-2.701-.116-7.916s.024-5.87.116-7.917c.092-2.043.416-3.439.892-4.66a9.426 9.426 0 012.216-3.401 9.402 9.402 0 013.4-2.214c1.222-.475 2.617-.798 4.66-.892 2.048-.093 2.703-.116 7.915-.116 5.213 0 5.865.023 7.913.116 2.044.094 3.44.417 4.664.892a9.384 9.384 0 013.4 2.214 9.424 9.424 0 012.216 3.401c.472 1.221.796 2.616.892 4.66.092 2.048.116 2.703.116 7.917s-.024 5.867-.116 7.916zm-4.116-19.24a5.958 5.958 0 00-1.437-2.208 5.937 5.937 0 00-2.206-1.436c-.677-.263-1.693-.576-3.565-.662-2.024-.092-2.632-.11-7.758-.11h-1.723v-.005c-3.578.004-4.264.028-6.036.108-1.872.086-2.888.398-3.565.662-.896.349-1.536.765-2.208 1.437s-1.089 1.312-1.437 2.208c-.263.677-.575 1.693-.661 3.565-.092 2.024-.11 2.629-.11 7.756s.018 5.735.11 7.76c.085 1.871.398 2.887.661 3.563.349.897.765 1.535 1.437 2.207s1.312 1.088 2.208 1.436c.677.263 1.693.576 3.565.662 2.024.092 2.632.112 7.759.112 5.126 0 5.734-.02 7.758-.112 1.872-.085 2.89-.397 3.565-.661a5.937 5.937 0 002.206-1.437 5.936 5.936 0 001.437-2.205c.263-.676.576-1.692.662-3.564.092-2.024.112-2.632.112-7.756s-.02-5.732-.112-7.756c-.086-1.872-.399-2.888-.662-3.564zM36.002 45.858c-5.445 0-9.86-4.413-9.86-9.858s4.415-9.86 9.86-9.86S45.86 30.555 45.86 36s-4.413 9.858-9.858 9.858zM46.25 28.055a2.305 2.305 0 110-4.609 2.305 2.305 0 010 4.61zM42.4 36a6.4 6.4 0 11-12.8 0 6.4 6.4 0 0112.8 0z"/></symbol><symbol id="telegram" viewBox="0 0 72 72" xmlns="http://www.w3.org/2000/svg"><defs><style>.dcls-1{fill-rule:evenodd}</style></defs><path class="dcls-1" d="M72 36c0 19.882-16.118 36-36 36S0 55.882 0 36 16.118 0 36 0s36 16.118 36 36zm-47.893-3.298c-3.606 1.575-7.311 3.193-10.7 5.059-1.769 1.295.583 2.212 2.789 3.071.35.137.697.272 1.024.407.271.084.547.172.827.26 2.453.782 5.19 1.654 7.571.343 3.913-2.248 7.606-4.847 11.295-7.443a442.39 442.39 0 013.634-2.54l.191-.123c1.036-.672 3.366-2.182 2.504-.1-2.038 2.228-4.22 4.2-6.415 6.184-1.479 1.336-2.963 2.678-4.412 4.106-1.262 1.025-2.573 3.087-1.16 4.523 3.255 2.279 6.561 4.502 9.865 6.724 1.075.723 2.15 1.446 3.223 2.17 1.818 1.453 4.66.278 5.06-1.99.177-1.044.356-2.087.534-3.13.987-5.768 1.973-11.537 2.845-17.323.119-.907.253-1.815.387-2.723.326-2.2.652-4.404.754-6.616-.263-2.208-2.94-1.723-4.43-1.226-7.658 2.914-15.239 6.044-22.79 9.229-.856.379-1.723.757-2.596 1.138z"/></symbol></svg>